<svg viewBox="0 0 32 32" version="1.1" xmlns="http://www.w3.org/2000/svg" xmlns:xlink="http://www.w3.org/1999/xlink">
  <g stroke="none" stroke-width="1" fill="none" fill-rule="evenodd">
    <rect class="background" x="0" y="0" width="32" height="32"></rect>
    <path d="M25.9661458,23.2434896 C26.3220504,23.6349846 26.5,24.0976536 26.5,24.6315104 C26.5,25.1653673 26.3220504,25.6102413 25.9661458,25.9661458 C25.6102413,26.3220504 25.1653673,26.5 24.6315104,26.5 C24.0976536,26.5 23.6349846,26.3220504 23.2434896,25.9661458 L16.25,18.9726562 L9.25651042,25.9661458 C8.8650154,26.3220504 8.42014138,26.5 7.921875,26.5 C7.42360862,26.5 6.9787346,26.3220504 6.58723958,25.9661458 C6.19574457,25.6102413 6,25.1653673 6,24.6315104 C6,24.0976536 6.19574457,23.6349846 6.58723958,23.2434896 L13.5273438,16.25 L6.58723958,9.25651042 C6.19574457,8.8650154 6,8.40234642 6,7.86848958 C6,7.33463275 6.19574457,6.88975872 6.58723958,6.53385417 C6.9787346,6.17794961 7.42360862,6 7.921875,6 C8.42014138,6 8.8650154,6.17794961 9.25651042,6.53385417 L16.25,13.5273438 L23.2434896,6.53385417 C23.6349846,6.17794961 24.0976536,6 24.6315104,6 C25.1653673,6 25.6102413,6.17794961 25.9661458,6.53385417 C26.3220504,6.88975872 26.5,7.33463275 26.5,7.86848958 C26.5,8.40234642 26.3220504,8.8650154 25.9661458,9.25651042 L18.9726562,16.25 L25.9661458,23.2434896 Z" class="foreground" fill="#000000"></path>
  </g>
</svg>
